<?xml version="1.0" encoding="utf-8"?>
<!-- Generator: Adobe Illustrator 23.0.1, SVG Export Plug-In . SVG Version: 6.00 Build 0)  -->
<svg version="1.1" id="Layer_1" xmlns="http://www.w3.org/2000/svg" xmlns:xlink="http://www.w3.org/1999/xlink" x="0px" y="0px"
	 viewBox="0 0 1565.6 556" style="enable-background:new 0 0 1565.6 556;" xml:space="preserve">
<style type="text/css">
	.st0{fill:#FFFFFF;}
	.st1{fill:#FFCC00;}
</style>
<g>
	<g transform="matrix( 1.125, 0, 0, 1.125, -1042.05,-1199.5) ">
		<g>
			<g id="Layer0_0_MEMBER_0_FILL">
				<path class="st0" d="M926.3,1451v27.3h465.8V1451H926.3z"/>
			</g>
		</g>
	</g>
	<g transform="matrix( 1.125, 0, 0, 1.125, -785.35,-1222.75) ">
		<g>
			<g id="Layer0_0_MEMBER_0_MEMBER_0_FILL">
				<path class="st1" d="M1026,1213.3h-73l-80.6,146l11.7,46.8h83v46.1h58.8V1406h27.8v-51.6H1026V1213.3 M967.1,1354.4h-33.6
					l33.6-68.5V1354.4 M730.7,1225.9v59.3c14.6-12.6,30.6-18.9,47.8-18.9c20.4,0,30.6,9.3,30.6,28.1c0,12.6-4.8,25.1-14.3,37.5
					c-21.2,27.8-43.8,53.4-67.8,76.9l9.9,43.3h136.7v-55.3h-65.3c7.2-7.2,14.7-16.3,22.5-27.1c1.2-1.5,7.4-10.7,18.6-27.3
					c14.1-21,21.2-41.1,21.2-60.3c0-20.6-7.8-37.8-23.6-51.6c-14.6-12.6-33.7-18.9-57.4-18.9
					C768.8,1211.5,749.2,1216.3,730.7,1225.9 M1186.4,1263.7v-50.4h-146.3v55.3h77.9l-65.1,183.5h67.4L1186.4,1263.7z"/>
			</g>
		</g>
	</g>
	<g transform="matrix( 0.286529541015625, 0, 0, 0.286529541015625, 871,479.85) ">
		<g>
			<g id="Layer0_0_MEMBER_1_MEMBER_0_MEMBER_0_FILL">
				<path class="st1" d="M-392.9-811c4.9-12.4,7.3-25.5,7.3-39c0-22.2-6.4-42.3-19-60.5c-12.4-17.8-28.7-30.7-48.7-38.4
					c-1.2-28.4-12-52.5-32.5-72.2c-20.6-19.9-45.2-29.7-73.8-29.7c-11.8,0-23.5,2-35.1,6.1c-3-3-6.1-5.8-9.1-8.2
					c-10-8-21.1-14.1-33.2-18.5c-12.1-4.2-24.7-6.4-37.5-6.4c-22.5,0-42.9,6.1-61.8,18.4c-18.2,12-31.9,27.8-41,47.5
					c-25.9,3.6-47.7,15.5-65.1,35.4c-17.6,20-26.4,43.4-26.4,70c0,10.6,1.5,20.9,4.6,31.1c-5.8,7.4-10.3,15.6-13.4,24.6
					c-3.2,9.1-4.7,18.5-4.9,28.2c0,12.9,2.7,25.2,8.3,36.7c5.3,11.2,12.7,20.9,22.3,29l46.1,349.5h343.4l49-370.7
					C-404.4-787.9-397.7-798.8-392.9-811 M-439.3-819.2c-5.3,9.1-12.6,16.4-21.9,21.9H-828c-6.1-7.4-9-15.9-9-25.5
					c0-9.7,3-18.4,9.3-25.8c6.1-7.4,13.8-12,23.2-13.8c-5.9-5.6-10.5-12.3-13.8-19.7c-3.3-7.7-5-15.9-5-24.4
					c0-16.8,5.9-31.1,17.9-42.9c12-11.8,26.3-17.9,42.9-17.9c7,0,13.8,1.2,20.3,3.5v-0.8c0-18.7,6.5-34.6,19.7-47.8
					c13.2-13.2,29.1-19.7,47.8-19.7c15.8,0,29.9,5,42.2,14.9c12.1,9.7,20,22.2,23.5,37.2c5.6-7.7,12.7-13.8,21.2-18.2
					c8.8-4.6,18.1-6.8,27.9-6.8c16.8,0,31.1,5.9,43.1,17.8c11.8,12,17.9,26.3,17.9,43.1c0,6.8-1.1,13.5-3.3,19.9
					c-2.1,6.2-5.2,11.8-9.1,17.1c6.2-2.1,12.6-3,19.3-3c16.8,0,31.1,5.9,42.9,17.9c11.8,11.8,17.8,26.3,17.8,42.9
					C-431-838.9-433.9-828.7-439.3-819.2 M-805.2-751.8h68.9l24.4,298.7h-53.9L-805.2-751.8 M-690.6-751.8h113.4l-24.4,298.7h-64.5
					L-690.6-751.8 M-502.2-453.1h-53.7l24.4-298.7h68.9L-502.2-453.1z"/>
			</g>
		</g>
	</g>
	<g transform="matrix( 0.286529541015625, 0, 0, 0.286529541015625, 871,479.85) ">
		<g>
			<g id="Layer0_0_MEMBER_1_MEMBER_0_MEMBER_1_FILL">
				<path class="st1" d="M-747.8-926.3c-6.2,0-11.7,2.3-16.1,6.7c-4.4,4.4-6.7,9.9-6.7,16.1c0,6.2,2.3,11.7,6.7,16.1
					c4.4,4.4,9.9,6.7,16.1,6.7c6.2,0,11.7-2.3,16.1-6.7c4.4-4.4,6.7-9.9,6.7-16.1c0-6.2-2.3-11.7-6.7-16.1
					C-736.2-924.2-741.5-926.3-747.8-926.3z"/>
			</g>
		</g>
	</g>
	<g transform="matrix( 0.286529541015625, 0, 0, 0.286529541015625, 871,479.85) ">
		<g>
			<g id="Layer0_0_MEMBER_1_MEMBER_0_MEMBER_2_FILL">
				<path class="st1" d="M-641.6-880.8c-6.2,0-11.7,2.3-16.1,6.7c-4.4,4.4-6.7,9.9-6.7,16.1s2.3,11.7,6.7,16.1s9.9,6.7,16.1,6.7
					c6.2,0,11.7-2.3,16.1-6.7c4.4-4.4,6.7-9.9,6.7-16.1s-2.3-11.7-6.7-16.1C-629.9-878.6-635.2-880.8-641.6-880.8z"/>
			</g>
		</g>
	</g>
	<g transform="matrix( 0.286529541015625, 0, 0, 0.286529541015625, 871,479.85) ">
		<g>
			<g id="Layer0_0_MEMBER_1_MEMBER_0_MEMBER_3_FILL">
				<path class="st1" d="M-565.7-956.6c-6.2,0-11.7,2.3-16.1,6.7c-4.4,4.4-6.7,9.9-6.7,16.1s2.3,11.7,6.7,16.1
					c4.4,4.4,9.9,6.7,16.1,6.7c6.2,0,11.7-2.3,16.1-6.7c4.4-4.4,6.7-9.9,6.7-16.1s-2.3-11.7-6.7-16.1
					C-554.1-954.5-559.4-956.6-565.7-956.6z"/>
			</g>
		</g>
	</g>
	<g transform="matrix( 2.25, 0, 0, 2.25, -2113.2,-1136.3) ">
		<g>
			<g id="Layer0_0_MEMBER_2_FILL">
				<path class="st0" d="M1440.6,565h-10.8v124.8h10.8V565 M1471.3,583.4c6.5-7.3,15.1-11,25.8-11c10.8,0,19.4,3.6,25.8,10.8
					c6.1,6.9,9.2,15.8,9.2,26.7v79.8h10.7V610c0-10.9,3.1-19.8,9.2-26.7c6.5-7.2,15.2-10.8,25.9-10.8c10.7,0,19.3,3.7,25.8,11
					c6.1,6.9,9.2,15.7,9.2,26.5v79.8h10.9v-76.4c0-15.1-3.9-27.1-11.7-36.3c-8.2-9.7-19.8-14.5-34.8-14.5
					c-16.9,0-30.2,8.1-39.9,24.3c-9.3-16.2-22.6-24.3-39.8-24.3c-15,0-26.5,4.8-34.6,14.5c-7.7,9-11.6,21.1-11.6,36.3v76.4h10.7V610
					C1462.1,599.1,1465.2,590.3,1471.3,583.4 M1203.7,661.6c-0.2-0.2-0.4-0.5-0.7-0.7v14.2c12.4,11.3,26.8,16.9,43.3,16.9
					c18.2,0,33.4-6.2,45.5-18.7c3.5-3.7,6.4-7.6,8.9-11.7c5.9-10,8.8-21.4,8.8-34.2c0-18.5-5.8-33.9-17.4-46.2
					c-11.7-12.4-26.8-18.6-45.3-18.6c-23.9,0-42,10.3-54.5,31c-5.8,9.6-8.7,23.2-8.7,40.9V746h10.7V633.7c0-17.3,4.2-31.6,12.5-42.7
					c9.3-12.4,22.5-18.6,39.4-18.6c15.3,0,27.9,5.4,37.8,16.1c9.6,10.4,14.3,23.3,14.3,38.6c0,13.5-3.6,24.9-10.8,34.4
					c-1.1,1.4-2.2,2.8-3.5,4.1c-9.8,10.7-22.4,16-37.8,16C1230.3,681.7,1216,675,1203.7,661.6 M1328.5,505h-10.6v184.7h10.6v-67.9
					c0-13.6,3.7-25,11.1-34.2c7.9-10,18.5-15,31.7-15c11.8,0,21.2,4.3,28.3,13c6.5,8,9.7,18.1,9.7,30.1v73.9h10.7v-71.9
					c0-16.2-4-29.2-11.9-39.1c-8.6-10.9-20.9-16.4-36.7-16.4c-18.4,0-32.6,8.3-42.8,24.8L1328.5,505L1328.5,505z"/>
			</g>
		</g>
	</g>
</g>
</svg>
